<?xml version="1.0" encoding="UTF-8" standalone="no"?>
<!-- Generator: Adobe Illustrator 24.0.0, SVG Export Plug-In . SVG Version: 6.00 Build 0)  -->

<svg
   version="1.1"
   id="Layer_1"
   x="0px"
   y="0px"
   viewBox="0 0 924.71997 759.02412"
   xml:space="preserve"
   sodipodi:docname="hwslogowithtext.svg"
   width="924.71997"
   height="759.02411"
   inkscape:version="1.1.1 (c3084ef, 2021-09-22)"
   xmlns:inkscape="http://www.inkscape.org/namespaces/inkscape"
   xmlns:sodipodi="http://sodipodi.sourceforge.net/DTD/sodipodi-0.dtd"
   xmlns:xlink="http://www.w3.org/1999/xlink"
   xmlns="http://www.w3.org/2000/svg"
   xmlns:svg="http://www.w3.org/2000/svg"><defs
   id="defs76" /><sodipodi:namedview
   id="namedview74"
   pagecolor="#ffffff"
   bordercolor="#666666"
   borderopacity="1.0"
   inkscape:pageshadow="2"
   inkscape:pageopacity="0.0"
   inkscape:pagecheckerboard="0"
   showgrid="false"
   inkscape:zoom="0.50528736"
   inkscape:cx="357.22247"
   inkscape:cy="719.39262"
   inkscape:window-width="1312"
   inkscape:window-height="1081"
   inkscape:window-x="0"
   inkscape:window-y="25"
   inkscape:window-maximized="0"
   inkscape:current-layer="Layer_1" />
<style
   type="text/css"
   id="style9">
	.st0{clip-path:url(#SVGID_2_);}
	.st1{clip-path:url(#SVGID_4_);fill-rule:evenodd;clip-rule:evenodd;fill:#FFFFFF;}
	.st2{enable-background:new    ;}
	.st3{fill:#FFFFFF;}
</style>
<g
   id="g33"
   transform="matrix(5.1127391,0,0,5.1127391,85.29172,-43.080961)"
   style="stroke:none;stroke-opacity:1">
	<g
   id="g31"
   style="stroke:none;stroke-opacity:1">
		<g
   id="g29"
   style="stroke:none;stroke-opacity:1">
			<defs
   id="defs12">
				<rect
   id="SVGID_1_"
   y="0"
   width="141"
   height="141"
   x="0" />
			</defs>
			<clipPath
   id="SVGID_2_">
				<use
   xlink:href="#SVGID_1_"
   style="overflow:visible"
   id="use14"
   x="0"
   y="0"
   width="100%"
   height="100%" />
			</clipPath>
			<g
   class="st0"
   clip-path="url(#SVGID_2_)"
   id="g27"
   style="stroke:none;stroke-opacity:1">
				<g
   id="g25"
   style="stroke:none;stroke-opacity:1">
					<defs
   id="defs18">
						<rect
   id="SVGID_3_"
   y="0"
   width="141"
   height="141"
   x="0" />
					</defs>
					<clipPath
   id="SVGID_4_">
						<use
   xlink:href="#SVGID_3_"
   style="overflow:visible"
   id="use20"
   x="0"
   y="0"
   width="100%"
   height="100%" />
					</clipPath>
					<path
   class="st1"
   d="m 46.9,83.7 c -5.4,-4.5 -2.8,-0.2 -2,1.4 3,5.5 5.6,10.5 8.3,15.7 2.1,4 4.1,8.2 6.3,12.7 1.6,2.8 3.5,2.9 4.5,2.8 4.3,-0.4 7.7,-1.1 12.2,-2.4 1,-0.3 3.8,-0.7 0.2,-3.8 C 70.5,105 66.4,101.2 62.2,97.6 57.5,93.5 53.5,89.5 46.9,83.7 M 16.1,80.4 c -4.4,-4 -2.6,0.4 -1.9,2.3 2.3,6.7 5.3,12.1 9.1,17.6 7.5,10.1 16.6,17 28.9,16 3.4,0 1.6,-1.9 0.3,-3 C 40.1,102.6 28.4,91.1 16.1,80.4 m 109,50.4 c 2.2,2.5 3.1,0.8 3.3,-0.5 1.4,-9 0.9,-18 -4.5,-27 -1.1,-1.9 -2.4,-3.3 -4,-4.8 L 47.7,23.3 c -3.2,-3.3 -9,-8.4 -3.3,-0.7 11.2,15 21.2,28.4 30.8,41.3 16.1,21.5 31.3,41.7 49.9,66.9 M 55.4,71.6 c 9.1,12.7 18.2,25.5 27.6,38.7 1,1.7 2.7,2.4 4,2.8 1,0.2 1.9,0.1 2.9,0 2.9,-0.3 5.1,-0.6 10.5,-0.6 1.8,0.2 2.8,-0.2 0.8,-2.3 C 87.9,95 78.9,83 65.1,67.1 36.7,34.4 27.1,25 18,14.9 14.1,10.6 12,8.5 11.9,9 c -0.2,0.7 1.5,3.5 7.4,12 6.4,9 17.4,24.5 36.1,50.6 m 64.1,18.7 c 0.8,1.6 2.2,0.8 2,-0.2 0,-6.2 0.8,-9.6 1.1,-13.8 0.1,-0.9 -0.2,-3.6 -2.3,-5.4 -2.9,-2.9 -5.6,-5.5 -8.2,-7.9 -4.9,-4.7 -9.5,-8.9 -15.1,-14 -1.6,-1.5 -2.6,-1.2 -1.6,1.5 5,8.5 8.7,14.2 12.2,20.4 3,5.3 7.8,11.7 11.9,19.4 m 1,-27.5 c 1.5,2.3 2.3,0.9 2.4,-0.6 0.3,-6.1 -0.6,-13.4 -5.7,-23.1 C 112.9,30.8 105.5,22.2 93.3,14.7 92.1,14 90,13.2 91.4,15.4 Z"
   clip-path="url(#SVGID_4_)"
   id="path218"
   style="stroke:none;stroke-opacity:1" />
				</g>
			</g>
		</g>
	</g>
</g>
<g
   class="st2"
   id="g49"
   style="stroke:none;stroke-opacity:1"
   transform="translate(-165.98,657.65411)">
	<path
   class="st3"
   d="m 166.48,99.91 v -56 h 12.32 v 22.16 h 22.72 V 43.91 h 12.32 v 56 H 201.52 V 77.43 H 178.8 v 22.48 z"
   id="path35"
   style="stroke:none;stroke-opacity:1" />
	<path
   class="st3"
   d="m 222.48,99.91 24,-56.4 h 11.36 l 24,56.4 h -12.88 l -5.12,-12.56 h -23.68 l -5.12,12.56 z m 22.08,-23.44 h 14.88 L 252,58.31 Z"
   id="path37"
   style="stroke:none;stroke-opacity:1" />
	<path
   class="st3"
   d="m 313.12,100.87 c -8.21,0 -15.05,-2.77 -20.52,-8.32 -5.47,-5.55 -8.2,-12.37 -8.2,-20.48 v -0.16 c 0,-8.11 2.75,-14.96 8.24,-20.56 5.49,-5.6 12.48,-8.4 20.96,-8.4 4.96,0 9.17,0.73 12.64,2.2 3.47,1.47 6.61,3.61 9.44,6.44 l -7.84,9.04 c -4.64,-4.21 -9.41,-6.32 -14.32,-6.32 -4.64,0 -8.51,1.69 -11.6,5.08 -3.09,3.39 -4.64,7.51 -4.64,12.36 v 0.16 c 0,4.91 1.53,9.07 4.6,12.48 3.07,3.41 6.95,5.12 11.64,5.12 2.99,0 5.57,-0.53 7.76,-1.6 2.19,-1.07 4.51,-2.72 6.96,-4.96 l 7.84,7.92 c -3.09,3.31 -6.41,5.8 -9.96,7.48 -3.55,1.68 -7.88,2.52 -13,2.52 z"
   id="path39"
   style="stroke:none;stroke-opacity:1" />
	<path
   class="st3"
   d="m 345.92,99.91 v -56 h 12.32 v 24.48 l 22.72,-24.48 h 14.88 l -22.8,23.76 23.84,32.24 h -14.8 l -17.36,-23.84 -6.48,6.72 v 17.12 z"
   id="path41"
   style="stroke:none;stroke-opacity:1" />
	<path
   class="st3"
   d="m 404.88,99.91 v -56 h 12.32 v 56 z"
   id="path43"
   style="stroke:none;stroke-opacity:1" />
	<path
   class="st3"
   d="m 431.2,99.91 v -56 h 11.36 L 468.8,78.39 V 43.91 h 12.16 v 56 h -10.48 l -27.12,-35.6 v 35.6 z"
   id="path45"
   style="stroke:none;stroke-opacity:1" />
	<path
   class="st3"
   d="m 521.35,100.87 c -8.64,0 -15.71,-2.72 -21.2,-8.16 -5.49,-5.44 -8.24,-12.32 -8.24,-20.64 v -0.16 c 0,-8.05 2.8,-14.89 8.4,-20.52 5.6,-5.63 12.59,-8.44 20.96,-8.44 4.85,0 8.96,0.63 12.32,1.88 3.36,1.25 6.59,3.19 9.68,5.8 l -7.76,9.36 c -2.35,-1.97 -4.61,-3.41 -6.8,-4.32 -2.19,-0.91 -4.8,-1.36 -7.84,-1.36 -4.48,0 -8.28,1.71 -11.4,5.12 -3.12,3.41 -4.68,7.52 -4.68,12.32 v 0.16 c 0,5.12 1.59,9.36 4.76,12.72 3.17,3.36 7.24,5.04 12.2,5.04 4.59,0 8.45,-1.12 11.6,-3.36 v -8 h -12.4 V 67.67 h 24.32 v 24.32 c -6.98,5.92 -14.96,8.88 -23.92,8.88 z"
   id="path47"
   style="stroke:none;stroke-opacity:1" />
</g>
<g
   class="st2"
   id="g59"
   style="stroke:none;stroke-opacity:1"
   transform="translate(-165.98,657.65411)">
	<path
   class="st3"
   d="m 599.66,100.31 -20,-56.4 h 6.88 l 16,46.64 15.36,-46.8 h 5.2 l 15.36,46.8 16,-46.64 h 6.64 l -20,56.4 h -5.36 l -15.36,-45.44 -15.44,45.44 z"
   id="path51"
   style="stroke:none;stroke-opacity:1" />
	<path
   class="st3"
   d="m 673.1,99.91 v -56 h 6.32 v 56 z"
   id="path53"
   style="stroke:none;stroke-opacity:1" />
	<path
   class="st3"
   d="M 710.62,99.91 V 49.75 h -18.8 v -5.84 h 44 v 5.84 h -18.8 v 50.16 z"
   id="path55"
   style="stroke:none;stroke-opacity:1" />
	<path
   class="st3"
   d="m 747.66,99.91 v -56 h 6.32 V 68.79 H 786.3 V 43.91 h 6.32 v 56 h -6.32 v -25.2 h -32.32 v 25.2 z"
   id="path57"
   style="stroke:none;stroke-opacity:1" />
</g>
<g
   class="st2"
   id="g71"
   style="stroke:none;stroke-opacity:1"
   transform="translate(-165.98,657.65411)">
	<path
   class="st3"
   d="m 849.4,100.71 c -9.17,0 -17.09,-2.99 -23.76,-8.96 l 7.28,-8.72 c 5.49,4.53 11.07,6.8 16.72,6.8 2.51,0 4.48,-0.47 5.92,-1.4 1.44,-0.93 2.16,-2.23 2.16,-3.88 v -0.16 c 0,-1.6 -0.75,-2.89 -2.24,-3.88 -1.49,-0.99 -4.51,-2.07 -9.04,-3.24 -3.2,-0.8 -5.79,-1.59 -7.76,-2.36 -1.97,-0.77 -3.85,-1.8 -5.64,-3.08 -1.79,-1.28 -3.09,-2.87 -3.92,-4.76 -0.83,-1.89 -1.24,-4.2 -1.24,-6.92 v -0.16 c 0,-5.07 1.83,-9.15 5.48,-12.24 3.65,-3.09 8.36,-4.64 14.12,-4.64 7.95,0 14.88,2.37 20.8,7.12 l -6.4,9.28 c -5.28,-3.68 -10.13,-5.52 -14.56,-5.52 -2.29,0 -4.07,0.45 -5.32,1.36 -1.25,0.91 -1.88,2.08 -1.88,3.52 v 0.16 c 0,1.81 0.77,3.17 2.32,4.08 1.55,0.91 4.8,2 9.76,3.28 6.08,1.6 10.56,3.64 13.44,6.12 2.88,2.48 4.32,6.04 4.32,10.68 v 0.16 c 0,5.44 -1.88,9.69 -5.64,12.76 -3.76,3.07 -8.74,4.6 -14.92,4.6 z"
   id="path61"
   style="stroke:none;stroke-opacity:1" />
	<path
   class="st3"
   d="m 893.48,100.31 -19.12,-56.4 h 13.2 l 11.6,37.92 12.56,-38.08 h 10.56 l 12.56,38.08 11.6,-37.92 h 12.88 l -19.12,56.4 H 929.48 L 916.84,63.67 904.2,100.31 Z"
   id="path63"
   style="stroke:none;stroke-opacity:1" />
	<path
   class="st3"
   d="m 969,99.91 v -56 h 12.32 v 56 z"
   id="path65"
   style="stroke:none;stroke-opacity:1" />
	<path
   class="st3"
   d="m 995.32,99.91 v -56 h 42.64 v 11.2 h -30.32 v 11.92 h 26.72 v 11.2 h -26.72 v 21.68 z"
   id="path67"
   style="stroke:none;stroke-opacity:1" />
	<path
   class="st3"
   d="M 1060.84,99.91 V 55.27 H 1043.8 V 43.91 h 46.4 v 11.36 h -17.04 v 44.64 z"
   id="path69"
   style="stroke:none;stroke-opacity:1" />
</g>
</svg>
