<?xml version="1.0" encoding="UTF-8" standalone="no"?>
<!-- Generator: Adobe Illustrator 24.0.0, SVG Export Plug-In . SVG Version: 6.00 Build 0)  -->

<svg
   version="1.1"
   id="Layer_1"
   x="0px"
   y="0px"
   viewBox="0 0 117.1815 123.15568"
   xml:space="preserve"
   sodipodi:docname="hwslogo.svg"
   width="117.1815"
   height="123.15568"
   inkscape:version="1.1.1 (c3084ef, 2021-09-22)"
   xmlns:inkscape="http://www.inkscape.org/namespaces/inkscape"
   xmlns:sodipodi="http://sodipodi.sourceforge.net/DTD/sodipodi-0.dtd"
   xmlns:xlink="http://www.w3.org/1999/xlink"
   xmlns="http://www.w3.org/2000/svg"
   xmlns:svg="http://www.w3.org/2000/svg"><defs
   id="defs891" /><sodipodi:namedview
   id="namedview889"
   pagecolor="#ffffff"
   bordercolor="#666666"
   borderopacity="1.0"
   inkscape:pageshadow="2"
   inkscape:pageopacity="0.0"
   inkscape:pagecheckerboard="0"
   showgrid="false"
   inkscape:zoom="4.0422988"
   inkscape:cx="49.105721"
   inkscape:cy="66.4226"
   inkscape:window-width="1312"
   inkscape:window-height="1081"
   inkscape:window-x="0"
   inkscape:window-y="25"
   inkscape:window-maximized="0"
   inkscape:current-layer="Layer_1" />
<style
   type="text/css"
   id="style824">
	.st0{clip-path:url(#SVGID_2_);}
	.st1{clip-path:url(#SVGID_4_);fill-rule:evenodd;clip-rule:evenodd;fill:#FFFFFF;}
	.st2{enable-background:new    ;}
	.st3{fill:#FFFFFF;}
</style>
<g
   id="g848"
   transform="translate(-11.884531,-8.927525)">
	<g
   id="g846">
		<g
   id="g844">
			<defs
   id="defs827">
				<rect
   id="SVGID_1_"
   y="0"
   width="141"
   height="141"
   x="0" />
			</defs>
			<clipPath
   id="SVGID_2_">
				<use
   xlink:href="#SVGID_1_"
   style="overflow:visible"
   id="use829"
   x="0"
   y="0"
   width="100%"
   height="100%" />
			</clipPath>
			<g
   class="st0"
   clip-path="url(#SVGID_2_)"
   id="g842">
				<g
   id="g840">
					<defs
   id="defs833">
						<rect
   id="SVGID_3_"
   y="0"
   width="141"
   height="141"
   x="0" />
					</defs>
					<clipPath
   id="SVGID_4_">
						<use
   xlink:href="#SVGID_3_"
   style="overflow:visible"
   id="use835"
   x="0"
   y="0"
   width="100%"
   height="100%" />
					</clipPath>
					<path
   class="st1"
   d="m 46.9,83.7 c -5.4,-4.5 -2.8,-0.2 -2,1.4 3,5.5 5.6,10.5 8.3,15.7 2.1,4 4.1,8.2 6.3,12.7 1.6,2.8 3.5,2.9 4.5,2.8 4.3,-0.4 7.7,-1.1 12.2,-2.4 1,-0.3 3.8,-0.7 0.2,-3.8 C 70.5,105 66.4,101.2 62.2,97.6 57.5,93.5 53.5,89.5 46.9,83.7 M 16.1,80.4 c -4.4,-4 -2.6,0.4 -1.9,2.3 2.3,6.7 5.3,12.1 9.1,17.6 7.5,10.1 16.6,17 28.9,16 3.4,0 1.6,-1.9 0.3,-3 C 40.1,102.6 28.4,91.1 16.1,80.4 m 109,50.4 c 2.2,2.5 3.1,0.8 3.3,-0.5 1.4,-9 0.9,-18 -4.5,-27 -1.1,-1.9 -2.4,-3.3 -4,-4.8 L 47.7,23.3 c -3.2,-3.3 -9,-8.4 -3.3,-0.7 11.2,15 21.2,28.4 30.8,41.3 16.1,21.5 31.3,41.7 49.9,66.9 M 55.4,71.6 c 9.1,12.7 18.2,25.5 27.6,38.7 1,1.7 2.7,2.4 4,2.8 1,0.2 1.9,0.1 2.9,0 2.9,-0.3 5.1,-0.6 10.5,-0.6 1.8,0.2 2.8,-0.2 0.8,-2.3 C 87.9,95 78.9,83 65.1,67.1 36.7,34.4 27.1,25 18,14.9 14.1,10.6 12,8.5 11.9,9 c -0.2,0.7 1.5,3.5 7.4,12 6.4,9 17.4,24.5 36.1,50.6 m 64.1,18.7 c 0.8,1.6 2.2,0.8 2,-0.2 0,-6.2 0.8,-9.6 1.1,-13.8 0.1,-0.9 -0.2,-3.6 -2.3,-5.4 -2.9,-2.9 -5.6,-5.5 -8.2,-7.9 -4.9,-4.7 -9.5,-8.9 -15.1,-14 -1.6,-1.5 -2.6,-1.2 -1.6,1.5 5,8.5 8.7,14.2 12.2,20.4 3,5.3 7.8,11.7 11.9,19.4 m 1,-27.5 c 1.5,2.3 2.3,0.9 2.4,-0.6 0.3,-6.1 -0.6,-13.4 -5.7,-23.1 C 112.9,30.8 105.5,22.2 93.3,14.7 92.1,14 90,13.2 91.4,15.4 Z"
   clip-path="url(#SVGID_4_)"
   id="path838" />
				</g>
			</g>
		</g>
	</g>
</g>



<g
   inkscape:groupmode="layer"
   id="layer1"
   inkscape:label="Layer 1"
   transform="translate(-11.884531,-8.927525)" /></svg>
